<?xml version="1.0" encoding="utf-8"?>
<!-- Generator: Adobe Illustrator 19.0.0, SVG Export Plug-In . SVG Version: 6.00 Build 0)  -->
<svg version="1.1" id="Layer_1" xmlns="http://www.w3.org/2000/svg" xmlns:xlink="http://www.w3.org/1999/xlink" x="0px" y="0px"
	 viewBox="0 0 108 35" style="enable-background:new 0 0 108 35;" xml:space="preserve">
<style type="text/css">
	.st0{fill:#0000FF;}
	.st1{font-family:'sans-serif';}
	.st2{font-size:17.0349px;}
</style>
<g id="XMLID_53_">
	<path id="XMLID_7_" class="st0" d="M24.8,26.6c-2,1.6-4.6,2.6-7.3,2.6c-6.4,0-11.7-5.2-11.7-11.7c0-6.4,5.2-11.7,11.7-11.7
		c2.8,0,5.3,1,7.3,2.6c1.4-1.4,3.2-2.5,5.2-3.1C26.9,2,22.4,0,17.5,0C7.8,0,0,7.8,0,17.5S7.8,35,17.5,35c4.9,0,9.4-2,12.6-5.3
		C28.1,29.1,26.3,28,24.8,26.6z"/>
	<g id="XMLID_3_">
		<g id="XMLID_22_">
			<path id="XMLID_28_" class="st0" d="M15.8,11.7c0,0.1,0,0.2,0,0.2c0,0.2,0,0.4-0.1,0.6c-0.1,0.1-0.2,0.2-0.3,0.4
				c-0.1,0.1-0.2,0.2-0.2,0.3c-0.6,0.7-0.6,1.3-0.1,2.1c0.1,0.1,0.3,0.6,0.2,0.8c-0.2,0.2-0.7,0.1-0.9,0.1c-0.1,0-0.2,0-0.3,0
				c-0.2-0.2-0.5-0.4-0.7-0.5c-0.1,0-0.1-0.1-0.2-0.1c-0.1-0.1-0.3-0.2-0.4-0.3c-0.4-0.2-0.7-0.4-0.8-0.8c-0.2-0.6-0.5-1.3-1-1.8
				c-0.2-0.1-0.3-0.2-0.5-0.3c1-1.6,3.1-2.2,4.6-2c0.6,0.1,1,0.2,1.2,0.3C15.9,11,15.8,11.3,15.8,11.7z"/>
			<path id="XMLID_27_" class="st0" d="M9.6,13c0.1-0.2,0.3-0.3,0.4-0.3c0.2,0.1,0.3,0.2,0.5,0.3c0.5,0.4,0.7,1.1,0.9,1.6
				c0.2,0.6,0.6,0.8,1,1c0.1,0.1,0.3,0.1,0.4,0.2c0,0,0.1,0.1,0.2,0.1c0.1,0.1,0.4,0.3,0.4,0.3c0,0,0.1,0.1,0.1,0.1
				c0.2,0.1,0.1,0.4,0,0.6c-0.4,0-0.7,0-1,0.1c-0.1,0-0.3,0.1-0.4,0.1c-0.3,0.1-0.5,0.2-0.8,0.2c-0.3,0-0.6-0.1-0.9-0.3
				c-0.4-0.2-0.9-0.5-1.5-0.3C8.5,15.3,9.2,13.8,9.6,13z"/>
			<path id="XMLID_26_" class="st0" d="M18.7,13L18.7,13c-0.1,0.4-0.1,0.8-0.3,1.1c-0.1,0.2-0.2,0.3-0.4,0.5
				c-0.2,0.2-0.4,0.4-0.5,0.7c-0.2,0.5-0.6,1.7-0.6,1.7c-0.2-0.1-0.4-0.2-0.4-0.2c-0.3-0.2-0.4-0.6-0.8-0.7
				c-0.2-0.1-0.3-0.2-0.3-0.4c0-0.4-0.3-0.7-0.4-1.1c-0.1-0.4,0.1-0.8,0.3-1.1c0.1-0.1,0.1-0.1,0.2-0.2c0.1-0.1,0.3-0.3,0.4-0.5
				c0.1-0.3,0.1-0.5,0.2-0.8c0-0.1,0-0.1,0-0.2c0-0.3,0.1-0.6,0.2-0.9c0.6,0,1.1,0.3,1.6,0.5c0.5,0.2,0.7,0.4,0.7,0.7
				C18.8,12,18.8,12.6,18.7,13z"/>
			<path id="XMLID_25_" class="st0" d="M10.2,17.5c0.3,0.2,0.7,0.3,1.1,0.4c0.3,0,0.6-0.1,0.9-0.2c0.1-0.1,0.3-0.1,0.4-0.1
				c0.3-0.1,0.7-0.1,1.1,0c0.2,0.2,0.4,0.4,0.4,0.7c0,0.2-0.1,0.4-0.2,0.6c-0.2-0.1-0.4-0.2-0.6-0.2c-0.3,0-0.7,0.1-0.9,0.3
				c-0.3,0.2-0.5,0.5-0.8,0.6c-0.2,0.1-0.4,0.1-0.6,0.1c-0.4,0-0.8,0.1-1,0.3c-1-1.2-1.1-2.2-0.8-2.7C9.4,17.1,9.7,17.3,10.2,17.5z"
				/>
			<path id="XMLID_24_" class="st0" d="M10.8,20.1c0.2,0,0.5-0.1,0.7-0.1c0.4-0.1,0.7-0.4,1-0.7c0.2-0.2,0.4-0.2,0.6-0.2
				c0.2,0,0.4,0.1,0.6,0.2c0.2,0.2,0.4,0.5,0.6,1c0.2,0.5,0.3,1,0.4,1.4c-0.3,0.2-0.6,0.5-0.8,1c-0.5,0.9-0.8,0.8-1.4,0.7
				c-0.1,0-0.3-0.1-0.4-0.1c-0.9-0.7-1.4-1.9-1.9-2.7c0-0.1-0.1-0.1-0.1-0.2C10.2,20.2,10.5,20.1,10.8,20.1z"/>
			<path id="XMLID_23_" class="st0" d="M13,23.8c0.4,0,0.9-0.2,1.3-1c0.2-0.5,0.5-0.7,0.8-0.9c0.7,0.2,1.4,0.6,2,1
				c0.6,0.5,1.2,1,1.8,1.6c0.3,0.3,0.6,0.6,0.6,1.1c0.1,0.5-0.8,0.1-1,0.1c-0.2-0.1-0.6-0.3-0.7-0.2c-0.2,0.1,0,0.4-0.1,0.5
				c-0.1,0.3-0.5,0.2-0.7,0.1c-0.4-0.1-1.6-0.7-1.9-0.9c-0.7-0.4-1.4-0.9-2.1-1.3c-0.1-0.1-0.2-0.1-0.2-0.2
				C12.9,23.8,13,23.8,13,23.8z"/>
		</g>
		<path id="XMLID_19_" class="st0" d="M17.4,17.2c0.1,0.1,0.2,0.1,0.4,0.2c1.2,0.5,2.8,0.4,4,0c1.8-0.5,3.7-0.8,5.6-1.3
			c0.8-0.2,1.7-0.4,2.4-0.8c1.1-0.5-2-1.6-2.8-1.9c-0.9-0.3-1.7-0.7-2.6-1c-0.8-0.3-1.7-0.3-2.5-0.5c-0.9-0.2-1.8-0.1-2.6-0.1
			c0,0.4,0,0.7-0.1,1.1l0,0.1c-0.1,0.4-0.1,0.8-0.3,1.1c-0.1,0.2-0.3,0.4-0.4,0.5c-0.2,0.2-0.3,0.4-0.4,0.6
			C17.7,15.9,17.5,16.5,17.4,17.2z M24.3,13.6c0-0.2,0.1-0.3,0.3-0.3c0.2,0,0.3,0.1,0.3,0.3c0,0.2-0.1,0.3-0.3,0.3
			C24.5,13.9,24.3,13.7,24.3,13.6z"/>
		<path id="XMLID_18_" class="st0" d="M17,16.7c0,0.3-0.1,0.3,0.3,1.4c0.6,1.5,1,2,0.7,1.8c-0.2-0.2-1.7-1.9-1.5-3.6L17,16.7z"/>
		<path id="XMLID_17_" class="st0" d="M16.4,16.1c0,0.3-0.2,0.3,0.1,1.5c0.4,1.6,0.7,2.1,0.5,1.9c-0.2-0.2-1.4-2.1-1-3.7L16.4,16.1z
			"/>
		<path id="XMLID_16_" class="st0" d="M16.1,15.5c-0.1,0.3-0.2,0.2-0.1,1.5c0.1,1.6,0.3,2.2,0.1,1.9c-0.2-0.3-1-2.4-0.3-3.9
			L16.1,15.5z"/>
		<path id="XMLID_15_" class="st0" d="M14.3,15.6c0,0.2,0.1,0.4,0.1,0.8c0.3,1.6,0.6,2.2,0.4,1.9c-0.2-0.2-0.9-1.4-0.9-2.7
			L14.3,15.6z"/>
		<path id="XMLID_14_" class="st0" d="M14.8,15.7c0,0.1,0,0.1,0,0.2c0.3,1.6,0.6,2.2,0.4,1.9c-0.1-0.2-0.7-1.1-0.9-2.2L14.8,15.7z"
			/>
		<path id="XMLID_13_" class="st0" d="M15.1,15.6c0.3,1.3,0.5,1.8,0.3,1.6c-0.1-0.1-0.5-0.8-0.7-1.6L15.1,15.6z"/>
		<path id="XMLID_12_" class="st0" d="M22.9,16.8c0,0,2.2,0.2,2.8,0.9c0.6,0.7,1.3,2.1,1.3,1.7c0-0.4-0.6-1.7-1.1-2.1
			C25.5,17,23,16,23,16L22.9,16.8z"/>
		<path id="XMLID_11_" class="st0" d="M24,16.5c0,0,2.2,0.2,2.8,0.9c0.6,0.7,1.3,2.1,1.3,1.7c0-0.4-0.6-1.7-1.1-2.1
			c-0.5-0.3-2.9-1.3-2.9-1.3L24,16.5z"/>
		<path id="XMLID_10_" class="st0" d="M25.7,16.1c0,0,2.2,0.2,2.8,0.9c0.6,0.7,1.3,2.1,1.3,1.7c0-0.4-0.6-1.7-1.1-2.1
			c-0.5-0.3-2.9-1.3-2.9-1.3L25.7,16.1z"/>
		<path id="XMLID_9_" class="st0" d="M25.2,16.4c0,0,2.2,0.2,2.8,0.9c0.6,0.7,1.3,2.1,1.3,1.7c0-0.4-0.6-1.7-1.1-2.1
			c-0.5-0.3-2.9-1.3-2.9-1.3L25.2,16.4z"/>
		<g id="XMLID_6_">
			<path id="XMLID_8_" class="st0" d="M31.5,16.5c0.6,0,1.2-0.1,1.6-0.4c0.3-0.2,0.5-0.6,0.5-1.1c0-2.7-3.6-3.9-7-4.8
				c-0.3-0.1-0.6-0.2-0.9-0.3c-2.7-0.7-6-1.6-7.1-2.3c-0.1,0-0.2-0.1-0.2-0.1s0.1,0.2,0.2,0.2c1.1,0.7,4.3,1.6,7.1,2.3
				c0.3,0.1,0.6,0.2,0.9,0.3c3.3,0.9,6.9,2.1,6.9,4.7c0,0.4-0.2,0.7-0.5,0.9c-1.4,1-5.5-0.5-5.5-0.5l0,0.1
				C27.5,15.7,29.8,16.5,31.5,16.5z"/>
		</g>
		<g id="XMLID_4_">
			<path id="XMLID_5_" class="st0" d="M32.4,16.5c0.6,0,1.2-0.1,1.6-0.4c0.3-0.2,0.5-0.6,0.5-1.1c0-2.7-3.6-3.9-7-4.8
				c-0.3-0.1-0.6-0.2-0.9-0.3c-2.7-0.7-6-1.6-7.1-2.3c-0.1-0.1-0.3-0.1-0.3-0.1s0.1,0.2,0.2,0.2c1.1,0.7,4.3,1.6,7.1,2.3
				c0.3,0.1,0.6,0.2,0.9,0.3c3.3,0.9,6.9,2.1,6.9,4.7c0,0.4-0.2,0.7-0.5,0.9c-1.4,1-5.5-0.5-5.5-0.5l0,0.1
				C28.5,15.7,30.7,16.5,32.4,16.5z"/>
		</g>
	</g>
</g>
<text id="XMLID_54_" transform="matrix(1 0 0 1 40.0493 22.9325)" class="st0 st1 st2">Lele</text>
</svg>
